# Blender v3.2.2 OBJ File: 'painting_frame.blend'
# www.blender.org
o painting_frame_05
v -0.250134 0.238080 0.023004
v 0.250134 0.238080 0.023004
v 0.250134 0.238080 0.000000
v -0.250134 0.238080 0.000000
v 0.250134 -0.238080 0.023004
v -0.250134 -0.238080 0.023004
v -0.250134 -0.238080 0.000000
v 0.250134 -0.238080 0.000000
v -0.227480 -0.215426 0.023004
v 0.227480 -0.215426 0.023004
v 0.227480 -0.215426 0.017328
v -0.227480 -0.215426 0.017328
v 0.227480 0.215426 0.023004
v 0.227480 0.215426 0.017328
v -0.227480 0.215426 0.023004
v -0.227480 0.215426 0.017328
v 0.219892 -0.207838 0.017328
v -0.219892 -0.207838 0.017328
v 0.219892 0.207838 0.017328
v -0.219892 0.207838 0.017328
v 0.219892 -0.207838 0.004994
v -0.219892 -0.207838 0.004994
v 0.219892 0.207838 0.004994
v -0.219892 0.207838 0.004994
v 0.238807 0.226753 0.031412
v 0.238807 -0.226753 0.031412
v -0.238807 -0.226753 0.031412
v -0.238807 0.226753 0.031412
vt 0.910431 0.992223
vt 0.913173 0.322884
vt 0.943348 0.322884
vt 0.943348 0.992223
vt 0.036968 0.626331
vt 0.676132 0.629074
vt 0.676132 0.637304
vt 0.036968 0.634560
vt 0.708365 0.708627
vt 0.004906 0.708627
vt 0.005078 0.675709
vt 0.708365 0.675709
vt 0.004882 0.004880
vt 0.623472 0.004880
vt 0.623472 0.589180
vt 0.004882 0.589180
vt 0.021023 0.656506
vt 0.691905 0.656506
vt 0.750699 0.961819
vt 0.753441 0.356430
vt 0.775387 0.340657
vt 0.772643 0.977765
vt 0.891228 0.975765
vt 0.891228 0.339343
vt 0.018603 0.777265
vt 0.035062 0.758062
vt 0.674226 0.752577
vt 0.690685 0.774522
vt 0.794590 0.324884
vt 0.791847 0.993879
vt 0.004887 0.799211
vt 0.707144 0.793724
vt 0.872026 0.959304
vt 0.872026 0.355802
vt 0.863796 0.959304
vt 0.863796 0.355802
vt 0.035062 0.749833
vt 0.674226 0.744346
vt 0.047597 0.598899
vt 0.665845 0.601643
vt 0.665845 0.618102
vt 0.047597 0.618102
vt 0.827508 0.324884
vt 0.824765 0.993879
vt 0.745212 0.961819
vt 0.734239 0.951018
vt 0.734239 0.366718
vt 0.745212 0.356430
vt 0.852823 0.949704
vt 0.852823 0.364032
vt 0.046035 0.738861
vt 0.663253 0.736117
vt 0.046035 0.722400
vt 0.663253 0.716915
vt 0.959101 0.317030
vt 0.631279 0.317030
vt 0.631279 0.004881
vt 0.959101 0.004881
vt 0.836364 0.949704
vt 0.836364 0.364032
vt 0.715037 0.951018
vt 0.717780 0.366718
vt 0.707144 0.826643
vt 0.004887 0.829385
vn 1.0000 0.0000 0.0000
vn 0.0000 1.0000 0.0000
vn 0.0000 -1.0000 0.0000
vn 0.0000 0.0000 1.0000
vn 0.0000 -0.5961 0.8029
vn 0.5961 0.0000 0.8029
vn -0.5961 0.0000 0.8029
vn 0.0000 0.5961 0.8029
vn -1.0000 0.0000 0.0000
vn 0.0000 0.0000 -1.0000
s 1
f 2/1/1 5/2/1 8/3/1 3/4/1
s 2
f 11/5/2 12/6/2 9/7/2 10/8/2
s 3
f 7/9/3 8/10/3 5/11/3 6/12/3
s 4
f 22/13/4 21/14/4 23/15/4 24/16/4
s 5
f 6/12/5 5/11/5 26/17/5 27/18/5
f 9/19/6 15/20/6 28/21/6 27/22/6
f 25/23/6 26/24/6 5/2/6 2/1/6
f 28/25/5 15/26/5 13/27/5 25/28/5
f 27/22/7 28/21/7 1/29/7 6/30/7
f 1/31/8 28/25/8 25/28/8 2/32/8
f 13/33/7 10/34/7 26/24/7 25/23/7
f 27/18/8 26/17/8 10/8/8 9/7/8
s 6
f 14/35/9 11/36/9 10/34/9 13/33/9
s 7
f 16/37/3 14/38/3 13/27/3 15/26/3
s 8
f 21/39/2 22/40/2 18/41/2 17/42/2
s 9
f 1/29/9 4/43/9 7/44/9 6/30/9
s 10
f 12/45/4 18/46/4 20/47/4 16/48/4
f 17/42/4 18/41/4 12/6/4 11/5/4
f 14/35/4 19/49/4 17/50/4 11/36/4
f 20/51/4 19/52/4 14/38/4 16/37/4
s 11
f 24/53/3 23/54/3 19/52/3 20/51/3
s 12
f 4/55/10 3/56/10 8/57/10 7/58/10
s 13
f 12/45/1 16/48/1 15/20/1 9/19/1
s 14
f 23/59/9 21/60/9 17/50/9 19/49/9
s 15
f 22/61/1 24/62/1 20/47/1 18/46/1
s 16
f 3/63/2 4/64/2 1/31/2 2/32/2
